<svg width="16" height="16" viewBox="0 0 16 16" fill="none" xmlns="http://www.w3.org/2000/svg">
<path d="M15.8589 5.77275C15.7502 5.63513 15.5908 5.55546 15.3698 5.53735H13.5582V5.49389C13.522 2.46265 11.0292 0 7.99661 0C4.96763 0 2.47487 2.46265 2.44226 5.49389V5.53735H0.612553C0.409655 5.55546 0.242988 5.63513 0.137916 5.77275C0.000234537 5.9502 -0.00701183 6.17474 0.00748092 6.26528L1.5727 15.4821C1.62342 15.7827 1.88429 16.0036 2.18864 16.0036H13.8118C14.1198 16.0036 14.377 15.7863 14.4278 15.4857L15.9966 6.2689C16.0111 6.16025 15.9894 5.93934 15.8589 5.77275ZM7.99661 1.24943C10.3336 1.24943 12.2683 3.15075 12.3046 5.48665V5.53373H3.69226V5.48665C3.72849 3.15075 5.65965 1.24943 7.99661 1.24943ZM14.6343 6.78678L13.2828 14.7542H2.71763L1.36255 6.78678H14.6343Z" fill="white"/>
</svg>
