<svg width="16" height="16" viewBox="0 0 16 16" fill="none" xmlns="http://www.w3.org/2000/svg">
<path d="M7.97256 8.9797C10.3374 8.9797 12.2532 6.96791 12.2532 4.48461C12.2532 2.00131 10.3374 0 7.97256 0C5.60773 0 3.69193 2.01179 3.69193 4.48461C3.69193 6.95743 5.60773 8.9797 7.97256 8.9797ZM7.97256 1.17354C9.70876 1.17354 11.1257 2.66143 11.1257 4.48461C11.1257 6.30779 9.70876 7.79568 7.97256 7.79568C6.23636 7.79568 4.81946 6.30779 4.81946 4.48461C4.81946 2.66143 6.24135 1.17354 7.97256 1.17354Z" fill="white"/>
<path d="M0.563767 16.0001H15.4312C15.7456 16.0001 15.995 15.7381 15.995 15.4081C15.995 12.3066 13.5903 9.76562 10.6218 9.76562H5.37325C2.41472 9.76562 0 12.2908 0 15.4081C0 15.7381 0.249454 16.0001 0.563767 16.0001ZM5.37325 10.9549H10.6268C12.782 10.9549 14.5532 12.6366 14.8326 14.816H1.16745C1.44684 12.6471 3.21796 10.9549 5.37325 10.9549Z" fill="white"/>
</svg>
